<svg width="50" height="51" viewBox="0 0 50 51" fill="none" xmlns="http://www.w3.org/2000/svg">
<rect x="49.5" y="50" width="49" height="49" rx="24.5" transform="rotate(-180 49.5 50)" fill="white"/>
<rect x="49.5" y="50" width="49" height="49" rx="24.5" transform="rotate(-180 49.5 50)" stroke="#CED1D8"/>
<path fill-rule="evenodd" clip-rule="evenodd" d="M24.7363 31.5364C24.3849 31.8879 23.815 31.8879 23.4636 31.5364L18.0636 26.1364C17.7121 25.7849 17.7121 25.2151 18.0636 24.8636L23.4636 19.4636C23.815 19.1121 24.3849 19.1121 24.7363 19.4636C25.0878 19.8151 25.0878 20.3849 24.7363 20.7364L20.8727 24.6L31.3 24.6C31.797 24.6 32.2 25.0029 32.2 25.5C32.2 25.997 31.797 26.4 31.3 26.4L20.8727 26.4L24.7363 30.2636C25.0878 30.6151 25.0878 31.1849 24.7363 31.5364Z" fill="#CED1D8"/>
</svg>
